<svg width="154" height="51" viewBox="0 0 154 51" fill="none" xmlns="http://www.w3.org/2000/svg">
<path d="M18.9137 0.00421143H20.2794C25.0205 0.107021 29.6844 2.009 33.0341 5.37601C31.7973 6.63543 30.5347 7.84344 29.3236 9.10286C27.4426 7.4065 25.1751 6.09568 22.7015 5.63304C19.0426 4.86196 15.1002 5.55593 12.0339 7.63782C8.68424 9.82253 6.41674 13.5237 5.92716 17.4818C5.38606 21.3886 6.49404 25.501 9.04497 28.5339C11.4928 31.4897 15.2291 33.3402 19.0941 33.4687C22.7015 33.6744 26.4635 32.5692 29.0917 30.0503C31.1531 28.2769 32.1065 25.5781 32.4157 22.9565C28.1383 22.9565 23.861 22.9822 19.5837 22.9565V17.6618H37.5948C38.5224 23.342 37.1826 29.7419 32.8537 33.8029C29.9678 36.6815 25.9739 38.3779 21.9027 38.712C17.9604 39.0976 13.8892 38.3522 10.3849 36.4502C6.18483 34.2141 2.83512 30.4359 1.18603 25.9893C-0.359988 21.9027 -0.385755 17.2762 1.0572 13.1638C2.37132 9.41129 4.89648 6.09568 8.14313 3.78246C11.2609 1.49495 15.0487 0.235533 18.9137 0.00421143Z" fill="#3780FF"/>
<path d="M122.239 1.34094H127.754V38.044C125.924 38.044 124.069 38.0697 122.239 38.0183C122.265 25.8096 122.239 13.5753 122.239 1.34094Z" fill="#38B137"/>
<path d="M49.8599 14.0636C53.2611 13.4211 56.9458 14.1407 59.7544 16.1712C62.3054 17.9704 64.0833 20.7977 64.6244 23.8819C65.3201 27.4546 64.444 31.3613 62.125 34.1886C59.6256 37.35 55.5286 39.0464 51.5348 38.7893C47.8758 38.5837 44.32 36.7588 42.1556 33.7774C39.7077 30.4875 39.1151 25.9638 40.4549 22.1085C41.7948 17.9704 45.5826 14.809 49.8599 14.0636ZM50.6329 18.9471C49.2415 19.3069 47.9531 20.1037 47.0255 21.2346C44.5261 24.2161 44.6807 29.0738 47.4378 31.8497C49.0096 33.4432 51.3802 34.1886 53.5703 33.7517C55.6059 33.3918 57.3839 32.0296 58.363 30.2304C60.0636 27.1719 59.5741 22.9567 56.9716 20.5663C55.2967 19.0242 52.8489 18.3816 50.6329 18.9471Z" fill="#FA3913"/>
<path d="M77.1729 14.0636C81.0637 13.3183 85.3153 14.3978 88.227 17.1222C92.9681 21.3631 93.4834 29.3052 89.438 34.1886C86.9901 37.2729 83.022 38.9692 79.1054 38.7893C75.3692 38.6865 71.6845 36.836 69.4686 33.7774C66.9692 30.4104 66.4281 25.7839 67.8452 21.8515C69.2624 17.8419 72.9729 14.7833 77.1729 14.0636ZM77.9459 18.9471C76.5545 19.3069 75.2661 20.1037 74.3385 21.2089C71.8649 24.139 71.968 28.9196 74.622 31.7212C76.1938 33.3918 78.6416 34.2143 80.9091 33.7517C82.919 33.3661 84.7226 32.0296 85.7018 30.2304C87.3766 27.1461 86.8871 22.931 84.2588 20.5406C82.584 18.9985 80.1361 18.3816 77.9459 18.9471Z" fill="#FCBD06"/>
<path d="M100.338 15.5544C103.301 13.7038 107.243 13.1898 110.438 14.7833C111.443 15.2202 112.268 15.9656 113.066 16.711C113.092 16.017 113.066 15.2974 113.092 14.5777C114.819 14.6034 116.545 14.5777 118.297 14.6034V37.2729C118.271 40.6913 117.395 44.3154 114.922 46.8085C112.216 49.5587 108.068 50.4068 104.331 49.8414C100.338 49.2502 96.859 46.3459 95.3129 42.6704C96.859 41.925 98.4823 41.3339 100.08 40.6399C100.982 42.7475 102.811 44.5467 105.104 44.9579C107.398 45.3692 110.052 44.8037 111.546 42.9017C113.144 40.9483 113.144 38.2753 113.066 35.885C111.881 37.0416 110.515 38.0697 108.866 38.4552C105.285 39.4576 101.342 38.2239 98.5854 35.8079C95.8025 33.3918 94.1534 29.665 94.308 25.9638C94.3853 21.7744 96.7559 17.7391 100.338 15.5544ZM105.671 18.8443C104.099 19.1013 102.631 19.9752 101.626 21.1832C99.2038 24.0619 99.2038 28.6626 101.652 31.4899C103.043 33.1605 105.285 34.0858 107.449 33.8545C109.485 33.6489 111.366 32.3637 112.371 30.5903C114.071 27.5831 113.788 23.4964 111.495 20.8748C110.077 19.2555 107.81 18.4587 105.671 18.8443Z" fill="#3780FF"/>
<path d="M134.376 16.8652C137.468 13.9865 142.235 13.0098 146.203 14.5263C149.965 15.9399 152.361 19.5125 153.572 23.188C147.981 25.5012 142.415 27.7887 136.824 30.1019C137.597 31.567 138.782 32.9035 140.379 33.4432C142.621 34.24 145.301 33.9573 147.182 32.4665C147.929 31.9011 148.522 31.1557 149.089 30.4361C150.506 31.387 151.923 32.3123 153.34 33.2633C151.33 36.2705 147.955 38.3781 144.322 38.7122C140.302 39.2006 136.025 37.6584 133.422 34.5227C129.145 29.5879 129.557 21.3117 134.376 16.8652ZM137.133 21.6201C136.257 22.8795 135.896 24.4217 135.922 25.9381C139.658 24.396 143.394 22.8538 147.13 21.286C146.512 19.8467 145.018 18.9728 143.497 18.7415C141.049 18.3045 138.498 19.6153 137.133 21.6201Z" fill="#FA3913"/>
</svg>
