<svg width="206" height="59" viewBox="0 0 206 59" fill="none" xmlns="http://www.w3.org/2000/svg">
<path d="M10.5787 0.204819C6.37173 1.96902 1.74689 6.95312 0.286211 13.2092C-1.56362 21.136 6.1344 24.488 6.76579 23.3889C7.50894 22.0975 5.3864 21.6607 4.94949 17.548C4.38482 12.236 6.84983 6.30047 9.95212 3.69612C10.5288 3.21226 10.5014 3.88572 10.5014 5.1314C10.5014 7.35898 10.3785 27.3561 10.3785 31.5295C10.3785 37.1766 10.1457 38.9599 9.72753 40.722C9.30386 42.5077 8.62274 43.7143 9.13885 44.1791C9.71549 44.699 12.1775 43.4623 13.6028 41.4694C15.312 39.0792 15.9102 36.2087 16.0177 33.0914C16.1474 29.3335 16.1419 23.3706 16.1474 19.9694C16.1526 16.85 16.1998 7.71575 16.0928 2.22455C16.0666 0.877672 12.3381 -0.535402 10.5785 0.20318M159.967 26.6331C159.832 29.5689 159.183 31.8636 158.378 33.4822C156.82 36.6157 153.585 37.5887 152.212 33.0842C151.464 30.6287 151.429 26.5279 151.967 23.1014C152.515 19.6108 154.044 16.9746 156.576 17.2123C159.074 17.4473 160.243 20.6714 159.967 26.6329V26.6331ZM117.864 44.8476C117.83 49.7256 117.063 54.0027 115.42 55.2449C113.089 57.0063 109.956 55.685 110.605 52.1255C111.179 48.9756 113.894 45.7588 117.87 41.8283C117.87 41.8283 117.878 42.7247 117.864 44.8476H117.864ZM117.227 26.6046C117.084 29.2786 116.392 31.9648 115.638 33.4826C114.079 36.6161 110.822 37.5957 109.472 33.0845C108.549 30.0024 108.77 26.0132 109.226 23.4997C109.819 20.2385 111.256 17.213 113.835 17.213C116.344 17.213 117.581 19.9699 117.227 26.6049V26.6046ZM92.836 26.5637C92.6831 29.3957 92.1317 31.7631 91.2467 33.4826C89.6456 36.5945 86.4779 37.5815 85.0809 33.0845C84.0738 29.8419 84.4166 25.4205 84.8356 23.0321C85.4573 19.4878 87.0141 16.9749 89.4446 17.213C91.941 17.4574 93.1547 20.6718 92.836 26.564V26.5637ZM204.614 29.8716C204.004 29.8716 203.725 30.5018 203.495 31.5627C202.696 35.2512 201.856 36.084 200.772 36.084C199.562 36.084 198.475 34.2576 198.195 30.6015C197.976 27.7267 198.011 22.4339 198.292 17.169C198.349 16.0873 198.051 15.017 195.155 13.963C193.909 13.5096 192.098 12.8421 191.196 15.0233C188.647 21.1854 187.65 26.0777 187.416 28.0651C187.403 28.168 187.278 28.189 187.255 27.9487C187.106 26.3569 186.772 23.4643 186.73 17.3871C186.722 16.2013 186.472 15.192 185.165 14.3657C184.318 13.8296 181.744 12.8813 180.817 14.0094C180.014 14.9321 179.084 17.4151 178.117 20.3585C177.332 22.7507 176.785 24.369 176.785 24.369C176.785 24.369 176.796 17.9142 176.805 15.4659C176.809 14.5422 176.177 14.2344 175.986 14.1786C175.128 13.929 173.437 13.5121 172.719 13.5121C171.833 13.5121 171.616 14.0081 171.616 14.7307C171.616 14.8253 171.476 23.229 171.476 29.1052C171.476 29.3605 171.476 29.639 171.479 29.9348C170.989 32.6356 169.4 36.3018 167.673 36.3018C165.943 36.3018 165.127 34.7691 165.127 27.7637C165.127 23.6769 165.249 21.8999 165.309 18.9441C165.344 17.2416 165.412 15.9342 165.408 15.6376C165.395 14.7277 163.825 14.2692 163.094 14.0997C162.36 13.9288 161.722 13.8626 161.224 13.891C160.519 13.9309 160.02 14.3943 160.02 15.0317C160.02 15.3734 160.024 16.0233 160.024 16.0233C159.116 14.5936 157.655 13.5985 156.683 13.3101C154.066 12.5313 151.334 13.2214 149.274 16.1096C147.637 18.4045 146.649 21.0036 146.261 24.7379C145.977 27.4679 146.07 30.2364 146.574 32.5776C145.964 35.2195 144.832 36.3018 143.592 36.3018C141.792 36.3018 140.487 33.3583 140.639 28.2677C140.739 24.9193 141.407 22.5695 142.138 19.1701C142.45 17.721 142.197 16.9623 141.562 16.2351C140.979 15.5682 139.738 15.2275 137.953 15.6466C136.682 15.9453 134.865 16.2666 133.202 16.5134C133.202 16.5134 133.303 16.1124 133.385 15.4054C133.817 11.6974 129.795 11.9983 128.512 13.1826C127.746 13.8897 127.225 14.7236 127.027 16.223C126.713 18.6024 128.65 19.7247 128.65 19.7247C128.015 22.6392 126.457 26.4466 124.848 29.1993C123.987 30.6741 123.328 31.767 122.477 32.9287C122.474 32.4961 122.472 32.0636 122.47 31.633C122.451 25.5055 122.532 20.6829 122.568 18.9447C122.603 17.2422 122.671 15.9695 122.667 15.6728C122.658 15.0073 122.27 14.7561 121.463 14.4379C120.75 14.1564 119.906 13.9616 119.031 13.8937C117.927 13.8074 117.262 14.3942 117.279 15.0881C117.282 15.2191 117.282 16.0236 117.282 16.0236C116.374 14.5938 114.914 13.5988 113.942 13.3104C111.324 12.5319 108.593 13.222 106.533 16.1099C104.895 18.4047 103.823 21.625 103.52 24.7097C103.237 27.5847 103.289 30.0279 103.675 32.086C103.258 34.147 102.062 36.3021 100.709 36.3021C98.9787 36.3021 97.9945 34.7693 97.9945 27.764C97.9945 23.6772 98.1169 21.9002 98.1771 18.9447C98.2121 17.2422 98.2796 15.9345 98.2757 15.6382C98.263 14.7283 96.6926 14.2698 95.9619 14.0999C95.1973 13.9228 94.5372 13.8577 94.0304 13.8951C93.3616 13.945 92.8915 14.545 92.8915 14.9924V16.0236C91.9833 14.5938 90.5227 13.5988 89.5508 13.3104C86.9333 12.5319 84.2171 13.2331 82.1417 16.1099C80.7882 17.9857 79.6926 20.0653 79.1286 24.6688C78.9657 25.9992 78.8937 27.2449 78.9031 28.4093C78.3634 31.716 75.9797 35.5271 74.0298 35.5271C72.8888 35.5271 71.8021 33.3099 71.8021 28.5847C71.8021 22.2904 72.191 13.3288 72.2567 12.465C72.2567 12.465 74.7203 12.4231 75.1974 12.4175C76.4263 12.404 77.5393 12.4331 79.176 12.3493C79.997 12.3073 80.7879 9.35567 79.9406 8.99037C79.5566 8.82504 76.8425 8.68017 75.7666 8.65729C74.8619 8.63675 72.3432 8.45002 72.3432 8.45002C72.3432 8.45002 72.5691 2.50166 72.6217 1.87329C72.6664 1.34957 71.99 1.07993 71.6022 0.916308C70.6591 0.516688 69.8153 0.325354 68.8151 0.118784C67.4333 -0.1668 66.8064 0.112545 66.6839 1.28093C66.4995 3.05416 66.404 8.24794 66.404 8.24794C65.39 8.24794 61.9262 8.04936 60.9119 8.04936C59.9694 8.04936 58.9523 12.1098 60.2552 12.1597C61.7543 12.2179 64.3667 12.2682 66.0985 12.3205C66.0985 12.3205 66.0214 21.4298 66.0214 24.2422C66.0214 24.5414 66.024 24.8295 66.0245 25.1091C65.0714 30.0863 61.7141 32.7748 61.7141 32.7748C62.4351 29.4821 60.9624 27.0095 58.3095 24.9164C57.3321 24.145 55.4027 22.6848 53.2439 21.0847C53.2439 21.0847 54.4942 19.8501 55.603 17.3664C56.3887 15.607 56.4226 13.5936 54.4942 13.1496C51.3078 12.4155 48.6806 14.7599 47.897 17.2627C47.2898 19.2016 47.6137 20.6404 48.8031 22.1349C48.8899 22.2441 48.984 22.3557 49.0812 22.468C48.362 23.8569 47.3739 25.7268 46.537 27.1769C44.2142 31.203 42.4595 34.3875 41.1334 34.3875C40.0733 34.3875 40.0875 31.1544 40.0875 28.1273C40.0875 25.5176 40.2799 21.5942 40.4335 17.532C40.4843 16.1886 39.8138 15.4233 38.6898 14.7301C38.0069 14.309 36.5493 13.481 35.7052 13.481C34.4416 13.481 30.7963 13.6532 27.3518 23.635C26.9178 24.8931 26.065 27.1855 26.065 27.1855L26.1384 15.1821C26.1384 14.9007 25.9888 14.6286 25.6462 14.4424C25.0658 14.1267 23.5155 13.481 22.1371 13.481C21.4803 13.481 21.1525 13.787 21.1525 14.397L21.0323 33.1765C21.0323 34.6034 21.0694 36.268 21.2103 36.9961C21.3506 37.725 21.5779 38.318 21.8594 38.6709C22.1405 39.023 22.4656 39.2916 23.0017 39.4025C23.5007 39.5054 26.2329 39.8569 26.3749 38.8109C26.545 37.5573 26.5515 36.2014 27.9862 31.1444C30.2197 23.2714 33.1318 19.43 34.5007 18.0658C34.7401 17.8274 35.0134 17.8131 35.0002 18.2034C34.9418 19.9295 34.7363 24.2426 34.5979 27.9068C34.2271 37.7128 36.0077 39.5304 38.5523 39.5304C40.499 39.5304 43.2432 37.5925 46.185 32.6871C48.0189 29.6302 49.7996 26.6327 51.079 24.4724C51.9706 25.2992 52.9711 26.1891 53.9709 27.1398C56.2944 29.3491 57.0573 31.4484 56.5511 33.44C56.164 34.9624 54.7061 36.5315 52.1114 35.0064C51.3551 34.5615 51.0323 34.2178 50.2718 33.7162C49.8633 33.4467 49.2395 33.3662 48.8655 33.6485C47.894 34.3823 47.3384 35.3157 47.0212 36.4712C46.7126 37.5956 47.8366 38.19 49.0018 38.7099C50.0051 39.1574 52.1615 39.5629 53.5367 39.609C58.895 39.7886 63.1874 37.0171 66.1755 29.8682C66.7104 36.0422 68.9868 39.5359 72.9419 39.5359C75.5861 39.5359 78.2373 36.1118 79.3966 32.7432C79.7294 34.1164 80.2221 35.3104 80.8583 36.3201C83.9059 41.1576 89.8181 40.1165 92.7879 36.0086C93.7061 34.7393 93.8458 34.2832 93.8458 34.2832C94.279 38.162 97.3968 39.5172 99.182 39.5172C101.181 39.5172 103.246 38.5703 104.693 35.3071C104.862 35.6612 105.047 35.9994 105.249 36.32C108.297 41.1575 114.209 40.1163 117.179 36.0085C117.319 35.8158 117.44 35.641 117.547 35.4842L117.634 38.0319C117.634 38.0319 115.939 39.5889 114.9 40.5441C110.322 44.7511 106.842 47.943 106.586 51.6599C106.257 56.3993 110.094 58.1607 112.997 58.3916C116.079 58.6366 118.719 56.9307 120.342 54.5433C121.769 52.4419 122.703 47.9191 122.634 43.4521C122.607 41.6633 122.562 39.3889 122.527 36.9509C124.135 35.0793 125.948 32.7137 127.617 29.9447C129.436 26.9272 131.385 22.8748 132.383 19.7211C132.383 19.7211 134.076 19.7356 135.884 19.6171C136.462 19.5793 136.628 19.6975 136.521 20.1221C136.392 20.635 134.238 28.9597 136.204 34.5053C137.55 38.3016 140.583 39.523 142.382 39.523C144.488 39.523 146.502 37.93 147.581 35.5645C147.711 35.8282 147.847 36.0834 147.996 36.319C151.043 41.1565 156.935 40.1091 159.925 36.0075C160.6 35.0821 160.983 34.2821 160.983 34.2821C161.625 38.2964 164.741 39.5365 166.526 39.5365C168.385 39.5365 170.149 38.7729 171.581 35.3794C171.641 36.8736 171.735 38.0953 171.884 38.4805C171.974 38.7161 172.503 39.0118 172.887 39.1546C174.588 39.7865 176.323 39.4877 176.964 39.3577C177.409 39.2676 177.756 38.9103 177.803 37.9876C177.927 35.5649 177.851 31.4944 178.584 28.4692C179.815 23.3922 180.963 21.4229 181.507 20.4479C181.812 19.9016 182.156 19.8115 182.168 20.3897C182.194 21.5594 182.252 24.9946 182.729 29.6099C183.079 33.0043 183.547 35.0106 183.906 35.6456C184.932 37.4614 186.199 37.5474 187.23 37.5474C187.887 37.5474 189.259 37.3657 189.136 36.2102C189.077 35.6469 189.181 32.166 190.395 27.1643C191.187 23.8979 192.508 20.9466 192.984 19.8677C193.16 19.4697 193.242 19.7834 193.239 19.8445C193.139 22.094 192.913 29.4516 193.828 33.4756C195.068 38.9269 198.655 39.5369 199.905 39.5369C202.573 39.5369 204.756 37.5034 205.491 32.1526C205.668 30.865 205.406 29.8707 204.62 29.8707" fill="#262626"/>
</svg>
