<svg width="235" height="50" viewBox="0 0 235 50" fill="none" xmlns="http://www.w3.org/2000/svg">
<g clip-path="url(#clip0_8_17)">
<path d="M234.082 22.6202V18.5035H228.97V12.1036L228.798 12.1566L223.996 13.6258L223.902 13.6545V18.5037H216.323V15.8023C216.323 14.5444 216.604 13.5818 217.159 12.9399C217.709 12.3056 218.496 11.9832 219.501 11.9832C220.223 11.9832 220.97 12.1532 221.722 12.4886L221.911 12.5728V8.23737L221.822 8.20476C221.12 7.9525 220.166 7.82547 218.983 7.82547C217.492 7.82547 216.137 8.14996 214.955 8.79305C213.773 9.43705 212.843 10.3564 212.192 11.5253C211.542 12.6928 211.213 14.0413 211.213 15.5335V18.5035H207.653V22.6202H211.213V39.9631H216.323V22.6202H223.902V33.6413C223.902 38.1803 226.043 40.4805 230.265 40.4805C230.959 40.4805 231.689 40.3992 232.435 40.24C233.194 40.0765 233.711 39.9133 234.015 39.7389L234.083 39.6991V35.5443L233.875 35.6818C233.597 35.8666 233.252 36.0176 232.847 36.1299C232.44 36.2443 232.101 36.3015 231.838 36.3015C230.849 36.3015 230.117 36.035 229.663 35.509C229.203 34.9782 228.97 34.05 228.97 32.7516V22.6202H234.082ZM196.242 36.3022C194.387 36.3022 192.924 35.6872 191.894 34.4758C190.857 33.2582 190.332 31.5223 190.332 29.3168C190.332 27.0412 190.857 25.2603 191.894 24.0212C192.926 22.7903 194.374 22.1655 196.2 22.1655C197.972 22.1655 199.382 22.7622 200.393 23.9399C201.408 25.1237 201.923 26.8904 201.923 29.1924C201.923 31.5227 201.439 33.3128 200.483 34.5102C199.534 35.6985 198.107 36.3022 196.242 36.3022ZM196.469 17.9866C192.93 17.9866 190.12 19.0234 188.116 21.0684C186.113 23.1136 185.098 25.9439 185.098 29.4814C185.098 32.8413 186.089 35.5439 188.044 37.5128C189.999 39.4824 192.66 40.4801 195.951 40.4801C199.381 40.4801 202.136 39.4287 204.139 37.3554C206.142 35.2844 207.157 32.4808 207.157 29.026C207.157 25.6135 206.205 22.8908 204.326 20.935C202.446 18.9784 199.802 17.9866 196.469 17.9866ZM176.858 17.9866C174.451 17.9866 172.46 18.6022 170.939 19.8162C169.409 21.0374 168.633 22.639 168.633 24.5771C168.633 25.5846 168.8 26.4794 169.13 27.2385C169.462 28 169.975 28.6705 170.657 29.2332C171.334 29.7914 172.379 30.376 173.763 30.9709C174.927 31.4498 175.795 31.8549 176.347 32.1742C176.885 32.4872 177.268 32.8017 177.484 33.1081C177.694 33.4079 177.8 33.8182 177.8 34.3245C177.8 35.7662 176.721 36.4678 174.499 36.4678C173.675 36.4678 172.735 36.2957 171.705 35.9565C170.683 35.6224 169.718 35.1331 168.845 34.5059L168.632 34.3537V39.2736L168.71 39.3098C169.433 39.6436 170.345 39.9251 171.419 40.1465C172.492 40.3682 173.466 40.481 174.313 40.481C176.925 40.481 179.028 39.8623 180.563 38.6411C182.107 37.4116 182.89 35.7721 182.89 33.767C182.89 32.3205 182.469 31.08 181.638 30.0796C180.813 29.0874 179.382 28.1764 177.385 27.3712C175.794 26.7326 174.774 26.2025 174.354 25.7956C173.948 25.4025 173.743 24.8466 173.743 24.1426C173.743 23.5185 173.997 23.0185 174.518 22.6136C175.044 22.2067 175.775 21.9998 176.693 21.9998C177.544 21.9998 178.415 22.1343 179.282 22.3979C180.148 22.6614 180.908 23.0144 181.543 23.4463L181.751 23.5889V18.922L181.671 18.8876C181.086 18.6364 180.314 18.4215 179.376 18.2472C178.442 18.074 177.595 17.9866 176.858 17.9866ZM155.311 36.3022C153.457 36.3022 151.994 35.6872 150.964 34.4758C149.927 33.2582 149.402 31.5227 149.402 29.3168C149.402 27.0412 149.927 25.2603 150.965 24.0212C151.995 22.7903 153.443 22.1655 155.27 22.1655C157.041 22.1655 158.452 22.7622 159.462 23.9399C160.478 25.1237 160.993 26.8904 160.993 29.1924C160.993 31.5227 160.508 33.3128 159.553 34.5102C158.604 35.6985 157.177 36.3022 155.311 36.3022ZM155.539 17.9866C151.999 17.9866 149.189 19.0234 147.186 21.0684C145.183 23.1136 144.167 25.9439 144.167 29.4814C144.167 32.8427 145.159 35.5439 147.114 37.5128C149.069 39.4824 151.729 40.4801 155.021 40.4801C158.451 40.4801 161.206 39.4287 163.209 37.3554C165.212 35.2844 166.227 32.4808 166.227 29.026C166.227 25.6135 165.274 22.8908 163.395 20.935C161.515 18.9784 158.872 17.9866 155.539 17.9866ZM136.41 22.2199V18.5035H131.362V39.9626H136.41V28.9855C136.41 27.1189 136.833 25.5855 137.668 24.4272C138.493 23.2828 139.592 22.7029 140.933 22.7029C141.388 22.7029 141.898 22.7778 142.451 22.9261C142.998 23.0735 143.394 23.2336 143.628 23.4021L143.84 23.5559V18.4668L143.758 18.4317C143.288 18.232 142.623 18.1312 141.782 18.1312C140.513 18.1312 139.378 18.5388 138.406 19.3414C137.552 20.0467 136.935 21.0138 136.464 22.2199H136.41ZM122.322 17.9866C120.007 17.9866 117.941 18.4831 116.184 19.462C114.424 20.4432 113.062 21.844 112.136 23.6252C111.213 25.402 110.745 27.4776 110.745 29.7923C110.745 31.8198 111.199 33.6805 112.096 35.3204C112.994 36.963 114.265 38.248 115.874 39.1393C117.48 40.0294 119.337 40.4807 121.392 40.4807C123.791 40.4807 125.839 40.0011 127.481 39.0553L127.548 39.0173V34.3927L127.336 34.5475C126.592 35.0894 125.761 35.5219 124.866 35.8335C123.974 36.1449 123.161 36.3022 122.447 36.3022C120.467 36.3022 118.876 35.6825 117.722 34.4606C116.566 33.2371 115.979 31.5191 115.979 29.3573C115.979 27.1819 116.591 25.4197 117.796 24.1195C118.998 22.8231 120.591 22.1655 122.531 22.1655C124.19 22.1655 125.806 22.7273 127.336 23.8369L127.548 23.9906V19.1179L127.479 19.0794C126.904 18.7571 126.119 18.4911 125.144 18.2893C124.174 18.088 123.224 17.9866 122.322 17.9866ZM107.268 18.5037H102.221V39.9626H107.268V18.5037ZM104.796 9.3621C103.965 9.3621 103.241 9.64492 102.645 10.2054C102.048 10.7674 101.744 11.475 101.744 12.3101C101.744 13.1321 102.044 13.8268 102.636 14.3739C103.224 14.9194 103.951 15.1959 104.796 15.1959C105.641 15.1959 106.371 14.9194 106.966 14.3748C107.565 13.8268 107.869 13.1323 107.869 12.3101C107.869 11.5042 107.573 10.8038 106.991 10.228C106.409 9.6533 105.67 9.3621 104.796 9.3621ZM92.2015 16.9205V39.9626H97.353V10.019H90.2231L81.1605 32.2603L72.3657 10.019H64.9455V39.9624H69.7866V16.9182H69.9528L79.2398 39.9626H82.8932L92.0353 16.9205H92.2015Z" fill="#706D6E"/>
<path d="M23.7464 23.7592H0V0.0128174H23.7464V23.7592Z" fill="#F1511B"/>
<path d="M49.9651 23.7592H26.2191V0.0128174H49.9651V23.7592Z" fill="#80CC28"/>
<path d="M23.7457 49.9872H0V26.241H23.7457V49.9872Z" fill="#00ADEF"/>
<path d="M49.9651 49.9872H26.2191V26.241H49.9651V49.9872Z" fill="#FBBC09"/>
</g>
<defs>
<clipPath id="clip0_8_17">
<rect width="235" height="50" fill="white"/>
</clipPath>
</defs>
</svg>
