<svg width="224" height="50" viewBox="0 0 224 50" fill="none" xmlns="http://www.w3.org/2000/svg">
<g clip-path="url(#clip0_19_156)">
<path d="M69.9314 7.80831C69.1084 4.73329 66.6916 2.31678 63.6166 1.49364C58.0489 0.000229329 35.7122 0.000228882 35.7122 0.000228882C35.7122 0.000228882 13.3758 0.000229329 7.80781 1.49364C4.73282 2.31678 2.31631 4.73329 1.49317 7.80831C-0.000243694 13.3763 -0.000244141 25.0002 -0.000244141 25.0002C-0.000244141 25.0002 -0.000243694 36.6242 1.49317 42.1921C2.31631 45.2671 4.73282 47.6836 7.80781 48.5066C13.3758 50.0001 35.7122 50.0001 35.7122 50.0001C35.7122 50.0001 58.0489 50.0001 63.6166 48.5066C66.6916 47.6836 69.1084 45.2671 69.9314 42.1921C71.4249 36.6242 71.4249 25.0002 71.4249 25.0002C71.4249 25.0002 71.4188 13.3763 69.9314 7.80831Z" fill="#FF0000"/>
<path d="M28.5631 35.7135L47.119 25.001L28.5631 14.2884V35.7135Z" fill="white"/>
<path d="M86.5057 32.509L78.486 3.54623H85.4827L88.2932 16.6753C89.0104 19.9091 89.5337 22.6666 89.8747 24.9479H90.0804C90.3157 23.3133 90.8449 20.5735 91.6622 16.7224L94.5724 3.54623H101.569L93.4494 32.509V46.4025H86.4999V32.509H86.5057Z" fill="#282828"/>
<path d="M103.674 45.4842C102.263 44.5317 101.257 43.05 100.658 41.0393C100.064 39.0285 99.7642 36.3593 99.7642 33.0195V28.4745C99.7642 25.1055 100.105 22.3952 100.787 20.355C101.469 18.3148 102.533 16.8213 103.98 15.8865C105.426 14.9516 107.325 14.4813 109.677 14.4813C111.994 14.4813 113.846 14.9575 115.245 15.91C116.638 16.8625 117.661 18.3559 118.308 20.3785C118.955 22.4069 119.278 25.1055 119.278 28.4745V33.0195C119.278 36.3593 118.961 39.0403 118.332 41.0628C117.703 43.0913 116.68 44.573 115.268 45.5077C113.857 46.4427 111.941 46.913 109.524 46.913C107.031 46.9187 105.085 46.4367 103.674 45.4842ZM111.588 40.5808C111.976 39.5578 112.176 37.8938 112.176 35.5773V25.823C112.176 23.577 111.982 21.9307 111.588 20.8959C111.194 19.8552 110.506 19.3378 109.518 19.3378C108.566 19.3378 107.89 19.8552 107.502 20.8959C107.108 21.9366 106.914 23.577 106.914 25.823V35.5773C106.914 37.8938 107.102 39.5635 107.478 40.5808C107.854 41.6038 108.53 42.1153 109.518 42.1153C110.506 42.1153 111.194 41.6038 111.588 40.5808Z" fill="#282828"/>
<path d="M142.038 46.4085H136.523L135.912 42.575H135.759C134.259 45.4678 132.013 46.914 129.015 46.914C126.939 46.914 125.405 46.232 124.417 44.874C123.429 43.5098 122.935 41.3815 122.935 38.4888V15.0938H129.985V38.077C129.985 39.4765 130.138 40.47 130.444 41.064C130.749 41.6578 131.261 41.9575 131.978 41.9575C132.59 41.9575 133.178 41.7695 133.742 41.3933C134.307 41.0168 134.718 40.5405 134.994 39.9645V15.088H142.038V46.4085Z" fill="#282828"/>
<path d="M161.188 9.21903H154.192V46.4073H147.295V9.21903H140.298V3.55112H161.188V9.21903Z" fill="#282828"/>
<path d="M178.192 46.4085H172.677L172.065 42.575H171.912C170.413 45.4678 168.167 46.914 165.168 46.914C163.093 46.914 161.558 46.232 160.571 44.874C159.583 43.5098 159.089 41.3815 159.089 38.4888V15.0938H166.139V38.077C166.139 39.4765 166.291 40.47 166.597 41.064C166.903 41.6578 167.414 41.9575 168.132 41.9575C168.743 41.9575 169.331 41.7695 169.896 41.3933C170.46 41.0168 170.872 40.5405 171.148 39.9645V15.088H178.192V46.4085Z" fill="#282828"/>
<path d="M201.522 20.0968C201.093 18.1213 200.405 16.6925 199.452 15.8047C198.5 14.9169 197.189 14.4759 195.519 14.4759C194.225 14.4759 193.014 14.8405 191.891 15.5754C190.768 16.3104 189.898 17.2687 189.286 18.4623H189.234V1.9642H182.443V46.402H188.263L188.981 43.4388H189.134C189.68 44.497 190.498 45.326 191.585 45.9435C192.673 46.555 193.884 46.8607 195.213 46.8607C197.594 46.8607 199.352 45.7612 200.475 43.568C201.598 41.369 202.163 37.9413 202.163 33.273V28.3165C202.163 24.8181 201.945 22.0723 201.522 20.0968ZM195.06 32.873C195.06 35.1543 194.966 36.9418 194.778 38.2353C194.59 39.5288 194.278 40.452 193.831 40.9928C193.39 41.5395 192.791 41.81 192.044 41.81C191.462 41.81 190.927 41.6748 190.433 41.3985C189.939 41.128 189.539 40.7165 189.234 40.1755V22.4016C189.469 21.549 189.88 20.8553 190.462 20.3085C191.039 19.7617 191.674 19.4912 192.35 19.4912C193.067 19.4912 193.62 19.7734 194.008 20.332C194.402 20.8964 194.672 21.8372 194.825 23.1659C194.978 24.4947 195.054 26.382 195.054 28.8338V32.873H195.06Z" fill="#282828"/>
<path d="M212.164 34.678C212.164 36.6888 212.222 38.194 212.34 39.1995C212.458 40.2048 212.705 40.934 213.081 41.3985C213.457 41.857 214.033 42.0863 214.815 42.0863C215.868 42.0863 216.597 41.6748 216.985 40.8575C217.379 40.0403 217.591 38.6763 217.626 36.7713L223.705 37.1298C223.741 37.4003 223.758 37.7765 223.758 38.2528C223.758 41.1455 222.964 43.3093 221.383 44.738C219.801 46.1668 217.561 46.884 214.668 46.884C211.194 46.884 208.759 45.7962 207.366 43.615C205.967 41.4338 205.273 38.0648 205.273 33.502V28.034C205.273 23.3364 205.996 19.9027 207.442 17.739C208.889 15.5753 211.364 14.4935 214.874 14.4935C217.291 14.4935 219.149 14.9344 220.442 15.8223C221.736 16.7101 222.647 18.0859 223.176 19.9615C223.705 21.8371 223.97 24.4241 223.97 27.7283V33.0905H212.164V34.678ZM213.057 19.9203C212.699 20.3613 212.464 21.0845 212.34 22.0899C212.222 23.0953 212.164 24.6181 212.164 26.6643V28.9103H217.32V26.6643C217.32 24.6534 217.25 23.1306 217.114 22.0899C216.979 21.0492 216.732 20.3201 216.373 19.8909C216.015 19.4676 215.462 19.2501 214.715 19.2501C213.963 19.2559 213.41 19.4794 213.057 19.9203Z" fill="#282828"/>
</g>
<defs>
<clipPath id="clip0_19_156">
<rect width="223.97" height="50" fill="white"/>
</clipPath>
</defs>
</svg>
